<?xml version="1.0" encoding="UTF-8"?>
<!DOCTYPE svg PUBLIC "-//W3C//DTD SVG 1.1//EN" "http://www.w3.org/Graphics/SVG/1.1/DTD/svg11.dtd">
<!-- Creator: CorelDRAW 2020 (64-Bit) -->
<svg xmlns="http://www.w3.org/2000/svg" xml:space="preserve" width="81.28mm" height="81.28mm" version="1.1" style="shape-rendering:geometricPrecision; text-rendering:geometricPrecision; image-rendering:optimizeQuality; fill-rule:evenodd; clip-rule:evenodd"
viewBox="0 0 8128 8128"
 xmlns:xlink="http://www.w3.org/1999/xlink"
 xmlns:xodm="http://www.corel.com/coreldraw/odm/2003">
 <defs>
  <style type="text/css">
   <![CDATA[
    .fil1 {fill:none}
    .fil0 {fill:dodgerblue;fill-rule:nonzero}
   ]]>
  </style>
 </defs>
 <g id="Слой_x0020_1">
  <metadata id="CorelCorpID_0Corel-Layer"/>
  <path class="fil0" d="M4078.07 6612.94c-352.78,0 -672.64,-70.56 -959.56,-211.67 -286.93,-141.11 -533.87,-332.79 -740.83,-575.03 -206.97,-242.24 -366.89,-515.05 -479.78,-818.44 -112.89,-303.39 -169.34,-615.01 -169.34,-934.86 0,-333.97 58.8,-652.64 176.39,-956.03 117.6,-303.39 283.4,-573.85 497.42,-811.39 214.02,-237.54 464.49,-425.69 751.42,-564.45 286.92,-138.76 597.37,-208.14 931.33,-208.14 352.78,0 672.63,72.91 959.56,218.73 286.92,145.81 532.69,341.02 737.3,585.61 204.61,244.59 363.36,517.41 476.25,818.44 112.89,301.04 169.34,609.13 169.34,924.28 0,333.96 -58.8,652.64 -176.39,956.03 -117.6,303.39 -282.22,573.85 -493.89,811.39 -211.67,237.54 -460.96,424.51 -747.89,560.92 -286.93,136.4 -597.37,204.61 -931.33,204.61zm-1855.62 -2540c0,272.81 44.69,535.04 134.06,786.69 89.37,251.65 216.37,475.08 381,670.28 164.63,195.2 361.01,350.43 589.14,465.67 228.13,115.24 478.6,172.86 751.42,172.86 286.92,0 544.45,-59.97 772.58,-179.92 228.13,-119.94 423.33,-279.87 585.61,-479.78 162.28,-199.9 285.75,-424.51 370.42,-673.8 84.66,-249.3 127,-503.3 127,-762 0,-272.82 -44.69,-533.87 -134.06,-783.17 -89.37,-249.3 -217.54,-472.72 -384.53,-670.28 -166.98,-197.55 -363.36,-352.78 -589.14,-465.67 -225.77,-112.89 -475.07,-169.33 -747.88,-169.33 -282.23,0 -537.4,58.8 -765.53,176.39 -228.13,117.59 -423.34,276.34 -585.61,476.25 -162.28,199.91 -286.93,424.51 -373.95,673.81 -87.02,249.29 -130.53,503.29 -130.53,762z"/>
  <rect class="fil1" x="22.86" y="7.15" width="8110.17" height="8128.01" rx="1428.41" ry="1434.35"/>
 </g>
</svg>
